<?xml version="1.0" encoding="UTF-8" standalone="no"?>
<!-- Created with Inkscape (http://www.inkscape.org/) -->

<svg
   width="100mm"
   height="100mm"
   viewBox="0 0 100 100"
   version="1.1"
   id="svg1"
   sodipodi:docname="clauncher_icon.svg"
   inkscape:export-filename="/home/ymsr/Pictures/icon.png"
   inkscape:export-xdpi="96"
   inkscape:export-ydpi="96"
   inkscape:version="1.4 (e7c3feb100, 2024-10-09)"
   xmlns:inkscape="http://www.inkscape.org/namespaces/inkscape"
   xmlns:sodipodi="http://sodipodi.sourceforge.net/DTD/sodipodi-0.dtd"
   xmlns:xlink="http://www.w3.org/1999/xlink"
   xmlns="http://www.w3.org/2000/svg"
   xmlns:svg="http://www.w3.org/2000/svg">
  <sodipodi:namedview
     id="namedview1"
     pagecolor="#ffffff"
     bordercolor="#000000"
     borderopacity="0.25"
     inkscape:showpageshadow="2"
     inkscape:pageopacity="0.0"
     inkscape:pagecheckerboard="0"
     inkscape:deskcolor="#d1d1d1"
     inkscape:document-units="mm"
     inkscape:export-bgcolor="#ffffff00"
     inkscape:zoom="1.6880417"
     inkscape:cx="204.08264"
     inkscape:cy="212.96867"
     inkscape:window-width="1536"
     inkscape:window-height="902"
     inkscape:window-x="0"
     inkscape:window-y="0"
     inkscape:window-maximized="1"
     inkscape:current-layer="g11" />
  <defs
     id="defs1">
    <linearGradient
       id="linearGradient5"
       inkscape:collect="always">
      <stop
         style="stop-color:#0000ff;stop-opacity:1;"
         offset="0.49513361"
         id="stop4" />
      <stop
         style="stop-color:#0000ff;stop-opacity:0.07995227;"
         offset="1"
         id="stop5" />
    </linearGradient>
    <linearGradient
       id="linearGradient1"
       inkscape:collect="always">
      <stop
         style="stop-color:#0000ff;stop-opacity:1;"
         offset="0.49513361"
         id="stop1" />
      <stop
         style="stop-color:#0000ff;stop-opacity:0;"
         offset="1"
         id="stop2" />
    </linearGradient>
    <radialGradient
       inkscape:collect="always"
       xlink:href="#linearGradient1"
       id="radialGradient2"
       cx="175.94797"
       cy="29.689718"
       fx="175.94797"
       fy="29.689718"
       r="40.632111"
       gradientTransform="matrix(1,0,0,1.0065503,0,-0.19447692)"
       gradientUnits="userSpaceOnUse" />
    <radialGradient
       inkscape:collect="always"
       xlink:href="#linearGradient5"
       id="radialGradient13"
       gradientUnits="userSpaceOnUse"
       gradientTransform="matrix(1.7175849,0,0,1.7288356,-120.54433,-27.608087)"
       cx="175.94797"
       cy="29.689718"
       fx="175.94797"
       fy="29.689718"
       r="40.632111" />
    <radialGradient
       inkscape:collect="always"
       xlink:href="#linearGradient1"
       id="radialGradient14"
       gradientUnits="userSpaceOnUse"
       gradientTransform="matrix(1,0,0,1.0065503,0,-0.19447692)"
       cx="175.94797"
       cy="29.689718"
       fx="175.94797"
       fy="29.689718"
       r="40.632111" />
    <radialGradient
       inkscape:collect="always"
       xlink:href="#linearGradient1"
       id="radialGradient15"
       gradientUnits="userSpaceOnUse"
       gradientTransform="matrix(1,0,0,1.0065503,0,-0.19447692)"
       cx="175.94797"
       cy="29.689718"
       fx="175.94797"
       fy="29.689718"
       r="40.632111" />
  </defs>
  <g
     inkscape:label="Layer 1"
     inkscape:groupmode="layer"
     id="layer1">
    <g
       id="path14"
       transform="rotate(45.321712,88.743177,-107.71108)"
       style="fill:url(#radialGradient2)">
      <path
         style="fill:url(#radialGradient2)"
         d="m 147.67656,0.95584124 c -3.82051,3.72475846 -6.86735,8.16774486 -8.96545,13.07367176 -6.46326,15.112832 -3.15138,32.633216 8.38236,44.344074 11.53366,11.710887 29.00147,15.28946 44.21105,9.05737 15.20973,-6.232222 25.14423,-21.039145 25.14414,-37.476193 0.96189,-4.82046 -7.20496,-9.300786 -7.93654,-4.595329 -0.93639,12.8913 -6.42911,24.48991 -18.61706,30.086206 -12.35563,5.660796 -26.04412,3.634828 -34.64549,-5.127711 -8.60148,-8.76239 -10.40981,-22.523336 -4.57687,-34.828885 5.75272,-12.1057513 14.6886,-18.0703537 27.52078,-18.8440875 2.19816,-0.9418411 2.88505,-6.5575964 -1.15927,-7.8494195 -10.77567,-0.164184 -21.64114,4.6372191 -29.3577,12.16030324 z"
         id="path16"
         sodipodi:nodetypes="sscccccccccss" />
      <path
         style="fill-opacity:0;fill:url(#radialGradient2)"
         d="m 176.56836,-10.671875 c -10.81082,-0.16472 -21.24265,3.9855812 -28.98438,11.53320313 -3.83299,3.73692407 -6.88918,8.19328397 -8.99414,13.11523487 -6.48422,15.161842 -3.16099,32.741398 8.41016,44.490234 11.57106,11.748865 29.09657,15.338238 44.35547,9.085937 15.25906,-6.252433 25.2247,-21.107303 25.22461,-37.597656 v -0.05469 l -5.15821,-5.236329 -0.0195,0.291016 c -0.93262,12.839422 -9.41845,24.794957 -21.5625,30.371094 -12.31112,5.640407 -25.93673,3.618179 -34.49609,-5.101563 -8.55947,-8.719592 -10.36284,-22.418194 -4.55078,-34.679687 5.73212,-12.0624028 17.73357,-20.3778438 30.51367,-21.1484376 l 0.29102,-0.017578 -4.97657,-5.0507814 z m -0.0547,0.267578 4.50391,4.5742189 c -12.78047,0.8789382 -24.73279,9.1994539 -30.46485,21.2617191 -5.85382,12.349605 -4.04193,26.173328 4.60157,34.978515 8.64337,8.805338 22.39479,10.837436 34.79492,5.15625 h 0.002 c 12.14538,-5.576751 20.63573,-17.481698 21.67578,-30.320312 l 4.68555,4.759765 c -0.0206,16.363152 -9.91408,31.097237 -25.05859,37.302735 -15.16026,6.211879 -32.57015,2.645565 -44.06641,-9.027344 -11.49634,-11.67288 -14.79777,-29.135397 -8.35547,-44.199219 2.09125,-4.8899032 5.12947,-9.318657 8.9375,-13.0312498 7.67912,-7.4865776 18.02197,-11.6048032 28.74414,-11.4550782 z"
         id="path17" />
    </g>
    <g
       id="g5"
       transform="rotate(45.321712,88.743177,-107.71108)"
       style="fill:url(#radialGradient2)">
      <path
         style="fill:url(#radialGradient2)"
         d="m 147.67656,0.95584124 c -3.82051,3.72475846 -6.86735,8.16774486 -8.96545,13.07367176 -6.46326,15.112832 -3.15138,32.633216 8.38236,44.344074 11.53366,11.710887 29.00147,15.28946 44.21105,9.05737 15.20973,-6.232222 25.14423,-21.039145 25.14414,-37.476193 0.96189,-4.82046 -7.20496,-9.300786 -7.93654,-4.595329 -0.93639,12.8913 -6.42911,24.48991 -18.61706,30.086206 -12.35563,5.660796 -26.04412,3.634828 -34.64549,-5.127711 -8.60148,-8.76239 -10.40981,-22.523336 -4.57687,-34.828885 5.75272,-12.1057513 14.6886,-18.0703537 27.52078,-18.8440875 2.19816,-0.9418411 2.88505,-6.5575964 -1.15927,-7.8494195 -10.77567,-0.164184 -21.64114,4.6372191 -29.3577,12.16030324 z"
         id="path4"
         sodipodi:nodetypes="sscccccccccss" />
      <path
         style="fill-opacity:0;fill:url(#radialGradient2)"
         d="m 176.56836,-10.671875 c -10.81082,-0.16472 -21.24265,3.9855812 -28.98438,11.53320313 -3.83299,3.73692407 -6.88918,8.19328397 -8.99414,13.11523487 -6.48422,15.161842 -3.16099,32.741398 8.41016,44.490234 11.57106,11.748865 29.09657,15.338238 44.35547,9.085937 15.25906,-6.252433 25.2247,-21.107303 25.22461,-37.597656 v -0.05469 l -5.15821,-5.236329 -0.0195,0.291016 c -0.93262,12.839422 -9.41845,24.794957 -21.5625,30.371094 -12.31112,5.640407 -25.93673,3.618179 -34.49609,-5.101563 -8.55947,-8.719592 -10.36284,-22.418194 -4.55078,-34.679687 5.73212,-12.0624028 17.73357,-20.3778438 30.51367,-21.1484376 l 0.29102,-0.017578 -4.97657,-5.0507814 z m -0.0547,0.267578 4.50391,4.5742189 c -12.78047,0.8789382 -24.73279,9.1994539 -30.46485,21.2617191 -5.85382,12.349605 -4.04193,26.173328 4.60157,34.978515 8.64337,8.805338 22.39479,10.837436 34.79492,5.15625 h 0.002 c 12.14538,-5.576751 20.63573,-17.481698 21.67578,-30.320312 l 4.68555,4.759765 c -0.0206,16.363152 -9.91408,31.097237 -25.05859,37.302735 -15.16026,6.211879 -32.57015,2.645565 -44.06641,-9.027344 -11.49634,-11.67288 -14.79777,-29.135397 -8.35547,-44.199219 2.09125,-4.8899032 5.12947,-9.318657 8.9375,-13.0312498 7.67912,-7.4865776 18.02197,-11.6048032 28.74414,-11.4550782 z"
         id="path5" />
    </g>
    <g
       id="g7"
       transform="rotate(45.321712,88.743177,-107.71108)"
       style="fill:url(#radialGradient2)">
      <path
         style="fill:url(#radialGradient2)"
         d="m 147.67656,0.95584124 c -3.82051,3.72475846 -6.86735,8.16774486 -8.96545,13.07367176 -6.46326,15.112832 -3.15138,32.633216 8.38236,44.344074 11.53366,11.710887 29.00147,15.28946 44.21105,9.05737 15.20973,-6.232222 25.14423,-21.039145 25.14414,-37.476193 0.96189,-4.82046 -7.20496,-9.300786 -7.93654,-4.595329 -0.93639,12.8913 -6.42911,24.48991 -18.61706,30.086206 -12.35563,5.660796 -26.04412,3.634828 -34.64549,-5.127711 -8.60148,-8.76239 -10.40981,-22.523336 -4.57687,-34.828885 5.75272,-12.1057513 14.6886,-18.0703537 27.52078,-18.8440875 2.19816,-0.9418411 2.88505,-6.5575964 -1.15927,-7.8494195 -10.77567,-0.164184 -21.64114,4.6372191 -29.3577,12.16030324 z"
         id="path6"
         sodipodi:nodetypes="sscccccccccss" />
      <path
         style="fill-opacity:0;fill:url(#radialGradient2)"
         d="m 176.56836,-10.671875 c -10.81082,-0.16472 -21.24265,3.9855812 -28.98438,11.53320313 -3.83299,3.73692407 -6.88918,8.19328397 -8.99414,13.11523487 -6.48422,15.161842 -3.16099,32.741398 8.41016,44.490234 11.57106,11.748865 29.09657,15.338238 44.35547,9.085937 15.25906,-6.252433 25.2247,-21.107303 25.22461,-37.597656 v -0.05469 l -5.15821,-5.236329 -0.0195,0.291016 c -0.93262,12.839422 -9.41845,24.794957 -21.5625,30.371094 -12.31112,5.640407 -25.93673,3.618179 -34.49609,-5.101563 -8.55947,-8.719592 -10.36284,-22.418194 -4.55078,-34.679687 5.73212,-12.0624028 17.73357,-20.3778438 30.51367,-21.1484376 l 0.29102,-0.017578 -4.97657,-5.0507814 z m -0.0547,0.267578 4.50391,4.5742189 c -12.78047,0.8789382 -24.73279,9.1994539 -30.46485,21.2617191 -5.85382,12.349605 -4.04193,26.173328 4.60157,34.978515 8.64337,8.805338 22.39479,10.837436 34.79492,5.15625 h 0.002 c 12.14538,-5.576751 20.63573,-17.481698 21.67578,-30.320312 l 4.68555,4.759765 c -0.0206,16.363152 -9.91408,31.097237 -25.05859,37.302735 -15.16026,6.211879 -32.57015,2.645565 -44.06641,-9.027344 -11.49634,-11.67288 -14.79777,-29.135397 -8.35547,-44.199219 2.09125,-4.8899032 5.12947,-9.318657 8.9375,-13.0312498 7.67912,-7.4865776 18.02197,-11.6048032 28.74414,-11.4550782 z"
         id="path7" />
    </g>
    <g
       id="g9"
       transform="rotate(45.321712,88.743177,-107.71108)"
       style="fill:url(#radialGradient2)">
      <path
         style="fill:url(#radialGradient2)"
         d="m 147.67656,0.95584124 c -3.82051,3.72475846 -6.86735,8.16774486 -8.96545,13.07367176 -6.46326,15.112832 -3.15138,32.633216 8.38236,44.344074 11.53366,11.710887 29.00147,15.28946 44.21105,9.05737 15.20973,-6.232222 25.14423,-21.039145 25.14414,-37.476193 0.96189,-4.82046 -7.20496,-9.300786 -7.93654,-4.595329 -0.93639,12.8913 -6.42911,24.48991 -18.61706,30.086206 -12.35563,5.660796 -26.04412,3.634828 -34.64549,-5.127711 -8.60148,-8.76239 -10.40981,-22.523336 -4.57687,-34.828885 5.75272,-12.1057513 14.6886,-18.0703537 27.52078,-18.8440875 2.19816,-0.9418411 2.88505,-6.5575964 -1.15927,-7.8494195 -10.77567,-0.164184 -21.64114,4.6372191 -29.3577,12.16030324 z"
         id="path8"
         sodipodi:nodetypes="sscccccccccss" />
      <path
         style="fill-opacity:0;fill:url(#radialGradient2)"
         d="m 176.56836,-10.671875 c -10.81082,-0.16472 -21.24265,3.9855812 -28.98438,11.53320313 -3.83299,3.73692407 -6.88918,8.19328397 -8.99414,13.11523487 -6.48422,15.161842 -3.16099,32.741398 8.41016,44.490234 11.57106,11.748865 29.09657,15.338238 44.35547,9.085937 15.25906,-6.252433 25.2247,-21.107303 25.22461,-37.597656 v -0.05469 l -5.15821,-5.236329 -0.0195,0.291016 c -0.93262,12.839422 -9.41845,24.794957 -21.5625,30.371094 -12.31112,5.640407 -25.93673,3.618179 -34.49609,-5.101563 -8.55947,-8.719592 -10.36284,-22.418194 -4.55078,-34.679687 5.73212,-12.0624028 17.73357,-20.3778438 30.51367,-21.1484376 l 0.29102,-0.017578 -4.97657,-5.0507814 z m -0.0547,0.267578 4.50391,4.5742189 c -12.78047,0.8789382 -24.73279,9.1994539 -30.46485,21.2617191 -5.85382,12.349605 -4.04193,26.173328 4.60157,34.978515 8.64337,8.805338 22.39479,10.837436 34.79492,5.15625 h 0.002 c 12.14538,-5.576751 20.63573,-17.481698 21.67578,-30.320312 l 4.68555,4.759765 c -0.0206,16.363152 -9.91408,31.097237 -25.05859,37.302735 -15.16026,6.211879 -32.57015,2.645565 -44.06641,-9.027344 -11.49634,-11.67288 -14.79777,-29.135397 -8.35547,-44.199219 2.09125,-4.8899032 5.12947,-9.318657 8.9375,-13.0312498 7.67912,-7.4865776 18.02197,-11.6048032 28.74414,-11.4550782 z"
         id="path9" />
    </g>
    <g
       id="g11"
       transform="matrix(0.32611837,0.32980135,-0.32980135,0.32611837,1.9713067,-16.70249)"
       style="fill:url(#radialGradient15)">
      <path
         style="fill:url(#radialGradient13);stroke-width:1.71759"
         d="m 133.1027,-25.632318 c -6.56205,6.397589 -11.79526,14.028795 -15.39892,22.4551371 -11.10119,25.9575699 -5.41276,56.0503189 14.39743,76.1647129 19.81003,20.114442 49.81247,26.260946 75.93622,15.556802 26.12401,-10.704371 43.18735,-36.136519 43.1872,-64.368545 1.65214,-8.279551 -12.37512,-15.9748933 -13.63169,-7.89287 -1.60832,22.141905 -11.04253,42.063503 -31.97638,51.675616 C 184.39472,77.681434 160.88358,74.201662 146.11,59.151256 131.33622,44.101107 128.23025,20.465512 138.24883,-0.67031208 148.12962,-21.462962 163.47775,-31.707674 185.51811,-33.036629 c 3.77553,-1.617691 4.95532,-11.263233 -1.99114,-13.48205 -18.50814,-0.282 -37.17051,7.964821 -50.42436,20.886361 z"
         id="path10"
         sodipodi:nodetypes="sscccccccccss" />
      <path
         style="fill:url(#radialGradient14);fill-opacity:0"
         d="m 176.56836,-10.671875 c -10.81082,-0.16472 -21.24265,3.9855812 -28.98438,11.53320313 -3.83299,3.73692407 -6.88918,8.19328397 -8.99414,13.11523487 -6.48422,15.161842 -3.16099,32.741398 8.41016,44.490234 11.57106,11.748865 29.09657,15.338238 44.35547,9.085937 15.25906,-6.252433 25.2247,-21.107303 25.22461,-37.597656 v -0.05469 l -5.15821,-5.236329 -0.0195,0.291016 c -0.93262,12.839422 -9.41845,24.794957 -21.5625,30.371094 -12.31112,5.640407 -25.93673,3.618179 -34.49609,-5.101563 -8.55947,-8.719592 -10.36284,-22.418194 -4.55078,-34.679687 5.73212,-12.0624028 17.73357,-20.3778438 30.51367,-21.1484376 l 0.29102,-0.017578 -4.97657,-5.0507814 z m -0.0547,0.267578 4.50391,4.5742189 c -12.78047,0.8789382 -24.73279,9.1994539 -30.46485,21.2617191 -5.85382,12.349605 -4.04193,26.173328 4.60157,34.978515 8.64337,8.805338 22.39479,10.837436 34.79492,5.15625 h 0.002 c 12.14538,-5.576751 20.63573,-17.481698 21.67578,-30.320312 l 4.68555,4.759765 c -0.0206,16.363152 -9.91408,31.097237 -25.05859,37.302735 -15.16026,6.211879 -32.57015,2.645565 -44.06641,-9.027344 -11.49634,-11.67288 -14.79777,-29.135397 -8.35547,-44.199219 2.09125,-4.8899032 5.12947,-9.318657 8.9375,-13.0312498 7.67912,-7.4865776 18.02197,-11.6048032 28.74414,-11.4550782 z"
         id="path11" />
    </g>
  </g>
</svg>
