<?xml version="1.0" encoding="UTF-8" standalone="no"?>
<!-- Created with Inkscape (http://www.inkscape.org/) -->

<svg
   width="1024mm"
   height="500mm"
   viewBox="0 0 1024 500"
   version="1.1"
   id="svg1"
   sodipodi:docname="feature graphic.svg"
   inkscape:export-filename="../../Pictures/cclauncher-feature-grphic.png"
   inkscape:export-xdpi="96"
   inkscape:export-ydpi="96"
   inkscape:version="1.4.2 (ebf0e940d0, 2025-05-08)"
   xmlns:inkscape="http://www.inkscape.org/namespaces/inkscape"
   xmlns:sodipodi="http://sodipodi.sourceforge.net/DTD/sodipodi-0.dtd"
   xmlns:xlink="http://www.w3.org/1999/xlink"
   xmlns="http://www.w3.org/2000/svg"
   xmlns:svg="http://www.w3.org/2000/svg">
  <sodipodi:namedview
     id="namedview1"
     pagecolor="#ffffff"
     bordercolor="#000000"
     borderopacity="0.25"
     inkscape:showpageshadow="2"
     inkscape:pageopacity="0.0"
     inkscape:pagecheckerboard="0"
     inkscape:deskcolor="#d1d1d1"
     inkscape:document-units="mm"
     inkscape:export-bgcolor="#ffffff00"
     inkscape:zoom="0.10550261"
     inkscape:cx="1208.5009"
     inkscape:cy="270.13551"
     inkscape:window-width="1536"
     inkscape:window-height="902"
     inkscape:window-x="0"
     inkscape:window-y="0"
     inkscape:window-maximized="1"
     inkscape:current-layer="g11" />
  <defs
     id="defs1">
    <linearGradient
       id="linearGradient5"
       inkscape:collect="always">
      <stop
         style="stop-color:#0000ff;stop-opacity:1;"
         offset="0.49513361"
         id="stop4" />
      <stop
         style="stop-color:#0000ff;stop-opacity:0.07995227;"
         offset="1"
         id="stop5" />
    </linearGradient>
    <linearGradient
       id="linearGradient1"
       inkscape:collect="always">
      <stop
         style="stop-color:#0000ff;stop-opacity:1;"
         offset="0.49513361"
         id="stop1" />
      <stop
         style="stop-color:#0000ff;stop-opacity:0;"
         offset="1"
         id="stop2" />
    </linearGradient>
    <radialGradient
       inkscape:collect="always"
       xlink:href="#linearGradient1"
       id="radialGradient2"
       cx="175.94797"
       cy="29.689718"
       fx="175.94797"
       fy="29.689718"
       r="40.632111"
       gradientTransform="matrix(1,0,0,1.0065503,0,-0.19447692)"
       gradientUnits="userSpaceOnUse" />
    <radialGradient
       inkscape:collect="always"
       xlink:href="#linearGradient5"
       id="radialGradient13"
       gradientUnits="userSpaceOnUse"
       gradientTransform="matrix(7.5189486,0,0,7.5682001,-1110.0398,-234.11941)"
       cx="175.94797"
       cy="29.689718"
       fx="175.94797"
       fy="29.689718"
       r="40.632111" />
    <radialGradient
       inkscape:collect="always"
       xlink:href="#linearGradient1"
       id="radialGradient14"
       gradientUnits="userSpaceOnUse"
       gradientTransform="matrix(4.3776285,0,0,4.4063032,-582.34145,-114.11281)"
       cx="175.94797"
       cy="29.689718"
       fx="175.94797"
       fy="29.689718"
       r="40.632111" />
    <radialGradient
       inkscape:collect="always"
       xlink:href="#linearGradient1"
       id="radialGradient15"
       gradientUnits="userSpaceOnUse"
       gradientTransform="matrix(1,0,0,1.0065503,0,-0.19447692)"
       cx="175.94797"
       cy="29.689718"
       fx="175.94797"
       fy="29.689718"
       r="40.632111" />
    <radialGradient
       inkscape:collect="always"
       xlink:href="#linearGradient1"
       id="radialGradient1"
       gradientUnits="userSpaceOnUse"
       gradientTransform="matrix(1,0,0,1.0065503,0,-0.19447692)"
       cx="175.94797"
       cy="29.689718"
       fx="175.94797"
       fy="29.689718"
       r="40.632111" />
    <radialGradient
       inkscape:collect="always"
       xlink:href="#linearGradient1"
       id="radialGradient3"
       gradientUnits="userSpaceOnUse"
       gradientTransform="matrix(1,0,0,1.0065503,0,-0.19447692)"
       cx="175.94797"
       cy="29.689718"
       fx="175.94797"
       fy="29.689718"
       r="40.632111" />
    <radialGradient
       inkscape:collect="always"
       xlink:href="#linearGradient1"
       id="radialGradient4"
       gradientUnits="userSpaceOnUse"
       gradientTransform="matrix(1,0,0,1.0065503,0,-0.19447692)"
       cx="175.94797"
       cy="29.689718"
       fx="175.94797"
       fy="29.689718"
       r="40.632111" />
    <radialGradient
       inkscape:collect="always"
       xlink:href="#linearGradient1"
       id="radialGradient5"
       gradientUnits="userSpaceOnUse"
       gradientTransform="matrix(1,0,0,1.0065503,0,-0.19447692)"
       cx="175.94797"
       cy="29.689718"
       fx="175.94797"
       fy="29.689718"
       r="40.632111" />
    <radialGradient
       inkscape:collect="always"
       xlink:href="#linearGradient1"
       id="radialGradient6"
       gradientUnits="userSpaceOnUse"
       gradientTransform="matrix(1,0,0,1.0065503,0,-0.19447692)"
       cx="175.94797"
       cy="29.689718"
       fx="175.94797"
       fy="29.689718"
       r="40.632111" />
    <radialGradient
       inkscape:collect="always"
       xlink:href="#linearGradient1"
       id="radialGradient7"
       gradientUnits="userSpaceOnUse"
       gradientTransform="matrix(1,0,0,1.0065503,0,-0.19447692)"
       cx="175.94797"
       cy="29.689718"
       fx="175.94797"
       fy="29.689718"
       r="40.632111" />
    <radialGradient
       inkscape:collect="always"
       xlink:href="#linearGradient1"
       id="radialGradient8"
       gradientUnits="userSpaceOnUse"
       gradientTransform="matrix(1,0,0,1.0065503,0,-0.19447692)"
       cx="175.94797"
       cy="29.689718"
       fx="175.94797"
       fy="29.689718"
       r="40.632111" />
    <radialGradient
       inkscape:collect="always"
       xlink:href="#linearGradient1"
       id="radialGradient9"
       gradientUnits="userSpaceOnUse"
       gradientTransform="matrix(1,0,0,1.0065503,0,-0.19447692)"
       cx="175.94797"
       cy="29.689718"
       fx="175.94797"
       fy="29.689718"
       r="40.632111" />
    <radialGradient
       inkscape:collect="always"
       xlink:href="#linearGradient1"
       id="radialGradient10"
       gradientUnits="userSpaceOnUse"
       gradientTransform="matrix(1,0,0,1.0065503,0,-0.19447692)"
       cx="175.94797"
       cy="29.689718"
       fx="175.94797"
       fy="29.689718"
       r="40.632111" />
    <radialGradient
       inkscape:collect="always"
       xlink:href="#linearGradient1"
       id="radialGradient11"
       gradientUnits="userSpaceOnUse"
       gradientTransform="matrix(1,0,0,1.0065503,0,-0.19447692)"
       cx="175.94797"
       cy="29.689718"
       fx="175.94797"
       fy="29.689718"
       r="40.632111" />
    <radialGradient
       inkscape:collect="always"
       xlink:href="#linearGradient1"
       id="radialGradient12"
       gradientUnits="userSpaceOnUse"
       gradientTransform="matrix(1,0,0,1.0065503,0,-0.19447692)"
       cx="175.94797"
       cy="29.689718"
       fx="175.94797"
       fy="29.689718"
       r="40.632111" />
    <radialGradient
       inkscape:collect="always"
       xlink:href="#linearGradient1"
       id="radialGradient16"
       gradientUnits="userSpaceOnUse"
       gradientTransform="matrix(1,0,0,1.0065503,0,-0.19447692)"
       cx="175.94797"
       cy="29.689718"
       fx="175.94797"
       fy="29.689718"
       r="40.632111" />
    <meshgradient
       inkscape:collect="always"
       id="meshgradient17"
       gradientUnits="userSpaceOnUse"
       x="-204.3094"
       y="-23.465767">
      <meshrow
         id="meshrow17">
        <meshpatch
           id="meshpatch17">
          <stop
             path="c 933.61,0  1867.22,0  2800.83,0"
             style="stop-color:#ffffff;stop-opacity:1"
             id="stop18" />
          <stop
             path="c 0,421.746  0,843.493  0,1265.24"
             style="stop-color:#808000;stop-opacity:1"
             id="stop19" />
          <stop
             path="c -933.61,0  -1867.22,0  -2800.83,0"
             style="stop-color:#ffffff;stop-opacity:1"
             id="stop20" />
          <stop
             path="c 0,-421.746  0,-843.493  0,-1265.24"
             style="stop-color:#808000;stop-opacity:1"
             id="stop21" />
        </meshpatch>
      </meshrow>
    </meshgradient>
  </defs>
  <g
     inkscape:label="Layer 1"
     inkscape:groupmode="layer"
     id="layer1">
    <g
       id="g11"
       transform="matrix(0.32611837,0.32980135,-0.32980135,0.32611837,1.9713067,-16.70249)"
       style="fill:url(#radialGradient15)">
      <rect
         style="font-variation-settings:'opsz' 32;fill:url(#meshgradient17);fill-opacity:1;stroke-width:4.73163;stroke-linecap:round;stroke-linejoin:round;paint-order:fill markers stroke"
         id="rect16"
         width="2800.8286"
         height="1265.2391"
         x="-204.3094"
         y="-23.465767"
         transform="rotate(-45.321712)"
         ry="48.454334" />
      <g
         id="g12"
         style="fill:url(#radialGradient16)"
         transform="matrix(0.40784939,0,0,0.40784939,926.60362,-548.68818)">
        <g
           id="path14"
           transform="matrix(9.4383561,3.2110627e-7,-3.2110627e-7,9.4383561,-1454.8683,-282.96202)"
           style="fill:url(#radialGradient4)">
          <path
             style="fill:url(#radialGradient1)"
             d="m 147.67656,0.95584124 c -3.82051,3.72475846 -6.86735,8.16774486 -8.96545,13.07367176 -6.46326,15.112832 -3.15138,32.633216 8.38236,44.344074 11.53366,11.710887 29.00147,15.28946 44.21105,9.05737 15.20973,-6.232222 25.14423,-21.039145 25.14414,-37.476193 0.96189,-4.82046 -7.20496,-9.300786 -7.93654,-4.595329 -0.93639,12.8913 -6.42911,24.48991 -18.61706,30.086206 -12.35563,5.660796 -26.04412,3.634828 -34.64549,-5.127711 -8.60148,-8.76239 -10.40981,-22.523336 -4.57687,-34.828885 5.75272,-12.1057513 14.6886,-18.0703537 27.52078,-18.8440875 2.19816,-0.9418411 2.88505,-6.5575964 -1.15927,-7.8494195 -10.77567,-0.164184 -21.64114,4.6372191 -29.3577,12.16030324 z"
             id="path16"
             sodipodi:nodetypes="sscccccccccss" />
          <path
             style="fill:url(#radialGradient3);fill-opacity:0"
             d="m 176.56836,-10.671875 c -10.81082,-0.16472 -21.24265,3.9855812 -28.98438,11.53320313 -3.83299,3.73692407 -6.88918,8.19328397 -8.99414,13.11523487 -6.48422,15.161842 -3.16099,32.741398 8.41016,44.490234 11.57106,11.748865 29.09657,15.338238 44.35547,9.085937 15.25906,-6.252433 25.2247,-21.107303 25.22461,-37.597656 v -0.05469 l -5.15821,-5.236329 -0.0195,0.291016 c -0.93262,12.839422 -9.41845,24.794957 -21.5625,30.371094 -12.31112,5.640407 -25.93673,3.618179 -34.49609,-5.101563 -8.55947,-8.719592 -10.36284,-22.418194 -4.55078,-34.679687 5.73212,-12.0624028 17.73357,-20.3778438 30.51367,-21.1484376 l 0.29102,-0.017578 -4.97657,-5.0507814 z m -0.0547,0.267578 4.50391,4.5742189 c -12.78047,0.8789382 -24.73279,9.1994539 -30.46485,21.2617191 -5.85382,12.349605 -4.04193,26.173328 4.60157,34.978515 8.64337,8.805338 22.39479,10.837436 34.79492,5.15625 h 0.002 c 12.14538,-5.576751 20.63573,-17.481698 21.67578,-30.320312 l 4.68555,4.759765 c -0.0206,16.363152 -9.91408,31.097237 -25.05859,37.302735 -15.16026,6.211879 -32.57015,2.645565 -44.06641,-9.027344 -11.49634,-11.67288 -14.79777,-29.135397 -8.35547,-44.199219 2.09125,-4.8899032 5.12947,-9.318657 8.9375,-13.0312498 7.67912,-7.4865776 18.02197,-11.6048032 28.74414,-11.4550782 z"
             id="path17" />
        </g>
        <g
           id="g5"
           transform="matrix(9.4383561,3.2110627e-7,-3.2110627e-7,9.4383561,-1454.8683,-282.96202)"
           style="fill:url(#radialGradient7)">
          <path
             style="fill:url(#radialGradient5)"
             d="m 147.67656,0.95584124 c -3.82051,3.72475846 -6.86735,8.16774486 -8.96545,13.07367176 -6.46326,15.112832 -3.15138,32.633216 8.38236,44.344074 11.53366,11.710887 29.00147,15.28946 44.21105,9.05737 15.20973,-6.232222 25.14423,-21.039145 25.14414,-37.476193 0.96189,-4.82046 -7.20496,-9.300786 -7.93654,-4.595329 -0.93639,12.8913 -6.42911,24.48991 -18.61706,30.086206 -12.35563,5.660796 -26.04412,3.634828 -34.64549,-5.127711 -8.60148,-8.76239 -10.40981,-22.523336 -4.57687,-34.828885 5.75272,-12.1057513 14.6886,-18.0703537 27.52078,-18.8440875 2.19816,-0.9418411 2.88505,-6.5575964 -1.15927,-7.8494195 -10.77567,-0.164184 -21.64114,4.6372191 -29.3577,12.16030324 z"
             id="path4"
             sodipodi:nodetypes="sscccccccccss" />
          <path
             style="fill:url(#radialGradient6);fill-opacity:0"
             d="m 176.56836,-10.671875 c -10.81082,-0.16472 -21.24265,3.9855812 -28.98438,11.53320313 -3.83299,3.73692407 -6.88918,8.19328397 -8.99414,13.11523487 -6.48422,15.161842 -3.16099,32.741398 8.41016,44.490234 11.57106,11.748865 29.09657,15.338238 44.35547,9.085937 15.25906,-6.252433 25.2247,-21.107303 25.22461,-37.597656 v -0.05469 l -5.15821,-5.236329 -0.0195,0.291016 c -0.93262,12.839422 -9.41845,24.794957 -21.5625,30.371094 -12.31112,5.640407 -25.93673,3.618179 -34.49609,-5.101563 -8.55947,-8.719592 -10.36284,-22.418194 -4.55078,-34.679687 5.73212,-12.0624028 17.73357,-20.3778438 30.51367,-21.1484376 l 0.29102,-0.017578 -4.97657,-5.0507814 z m -0.0547,0.267578 4.50391,4.5742189 c -12.78047,0.8789382 -24.73279,9.1994539 -30.46485,21.2617191 -5.85382,12.349605 -4.04193,26.173328 4.60157,34.978515 8.64337,8.805338 22.39479,10.837436 34.79492,5.15625 h 0.002 c 12.14538,-5.576751 20.63573,-17.481698 21.67578,-30.320312 l 4.68555,4.759765 c -0.0206,16.363152 -9.91408,31.097237 -25.05859,37.302735 -15.16026,6.211879 -32.57015,2.645565 -44.06641,-9.027344 -11.49634,-11.67288 -14.79777,-29.135397 -8.35547,-44.199219 2.09125,-4.8899032 5.12947,-9.318657 8.9375,-13.0312498 7.67912,-7.4865776 18.02197,-11.6048032 28.74414,-11.4550782 z"
             id="path5" />
        </g>
        <g
           id="g7"
           transform="matrix(9.4383561,3.2110627e-7,-3.2110627e-7,9.4383561,-1454.8683,-282.96202)"
           style="fill:url(#radialGradient10)">
          <path
             style="fill:url(#radialGradient8)"
             d="m 147.67656,0.95584124 c -3.82051,3.72475846 -6.86735,8.16774486 -8.96545,13.07367176 -6.46326,15.112832 -3.15138,32.633216 8.38236,44.344074 11.53366,11.710887 29.00147,15.28946 44.21105,9.05737 15.20973,-6.232222 25.14423,-21.039145 25.14414,-37.476193 0.96189,-4.82046 -7.20496,-9.300786 -7.93654,-4.595329 -0.93639,12.8913 -6.42911,24.48991 -18.61706,30.086206 -12.35563,5.660796 -26.04412,3.634828 -34.64549,-5.127711 -8.60148,-8.76239 -10.40981,-22.523336 -4.57687,-34.828885 5.75272,-12.1057513 14.6886,-18.0703537 27.52078,-18.8440875 2.19816,-0.9418411 2.88505,-6.5575964 -1.15927,-7.8494195 -10.77567,-0.164184 -21.64114,4.6372191 -29.3577,12.16030324 z"
             id="path6"
             sodipodi:nodetypes="sscccccccccss" />
          <path
             style="fill:url(#radialGradient9);fill-opacity:0"
             d="m 176.56836,-10.671875 c -10.81082,-0.16472 -21.24265,3.9855812 -28.98438,11.53320313 -3.83299,3.73692407 -6.88918,8.19328397 -8.99414,13.11523487 -6.48422,15.161842 -3.16099,32.741398 8.41016,44.490234 11.57106,11.748865 29.09657,15.338238 44.35547,9.085937 15.25906,-6.252433 25.2247,-21.107303 25.22461,-37.597656 v -0.05469 l -5.15821,-5.236329 -0.0195,0.291016 c -0.93262,12.839422 -9.41845,24.794957 -21.5625,30.371094 -12.31112,5.640407 -25.93673,3.618179 -34.49609,-5.101563 -8.55947,-8.719592 -10.36284,-22.418194 -4.55078,-34.679687 5.73212,-12.0624028 17.73357,-20.3778438 30.51367,-21.1484376 l 0.29102,-0.017578 -4.97657,-5.0507814 z m -0.0547,0.267578 4.50391,4.5742189 c -12.78047,0.8789382 -24.73279,9.1994539 -30.46485,21.2617191 -5.85382,12.349605 -4.04193,26.173328 4.60157,34.978515 8.64337,8.805338 22.39479,10.837436 34.79492,5.15625 h 0.002 c 12.14538,-5.576751 20.63573,-17.481698 21.67578,-30.320312 l 4.68555,4.759765 c -0.0206,16.363152 -9.91408,31.097237 -25.05859,37.302735 -15.16026,6.211879 -32.57015,2.645565 -44.06641,-9.027344 -11.49634,-11.67288 -14.79777,-29.135397 -8.35547,-44.199219 2.09125,-4.8899032 5.12947,-9.318657 8.9375,-13.0312498 7.67912,-7.4865776 18.02197,-11.6048032 28.74414,-11.4550782 z"
             id="path7" />
        </g>
        <g
           id="g9"
           transform="matrix(9.4383561,3.2110627e-7,-3.2110627e-7,9.4383561,-1454.8683,-282.96202)"
           style="fill:url(#radialGradient2)">
          <path
             style="fill:url(#radialGradient11)"
             d="m 147.67656,0.95584124 c -3.82051,3.72475846 -6.86735,8.16774486 -8.96545,13.07367176 -6.46326,15.112832 -3.15138,32.633216 8.38236,44.344074 11.53366,11.710887 29.00147,15.28946 44.21105,9.05737 15.20973,-6.232222 25.14423,-21.039145 25.14414,-37.476193 0.96189,-4.82046 -7.20496,-9.300786 -7.93654,-4.595329 -0.93639,12.8913 -6.42911,24.48991 -18.61706,30.086206 -12.35563,5.660796 -26.04412,3.634828 -34.64549,-5.127711 -8.60148,-8.76239 -10.40981,-22.523336 -4.57687,-34.828885 5.75272,-12.1057513 14.6886,-18.0703537 27.52078,-18.8440875 2.19816,-0.9418411 2.88505,-6.5575964 -1.15927,-7.8494195 -10.77567,-0.164184 -21.64114,4.6372191 -29.3577,12.16030324 z"
             id="path8"
             sodipodi:nodetypes="sscccccccccss" />
          <path
             style="fill:url(#radialGradient12);fill-opacity:0"
             d="m 176.56836,-10.671875 c -10.81082,-0.16472 -21.24265,3.9855812 -28.98438,11.53320313 -3.83299,3.73692407 -6.88918,8.19328397 -8.99414,13.11523487 -6.48422,15.161842 -3.16099,32.741398 8.41016,44.490234 11.57106,11.748865 29.09657,15.338238 44.35547,9.085937 15.25906,-6.252433 25.2247,-21.107303 25.22461,-37.597656 v -0.05469 l -5.15821,-5.236329 -0.0195,0.291016 c -0.93262,12.839422 -9.41845,24.794957 -21.5625,30.371094 -12.31112,5.640407 -25.93673,3.618179 -34.49609,-5.101563 -8.55947,-8.719592 -10.36284,-22.418194 -4.55078,-34.679687 5.73212,-12.0624028 17.73357,-20.3778438 30.51367,-21.1484376 l 0.29102,-0.017578 -4.97657,-5.0507814 z m -0.0547,0.267578 4.50391,4.5742189 c -12.78047,0.8789382 -24.73279,9.1994539 -30.46485,21.2617191 -5.85382,12.349605 -4.04193,26.173328 4.60157,34.978515 8.64337,8.805338 22.39479,10.837436 34.79492,5.15625 h 0.002 c 12.14538,-5.576751 20.63573,-17.481698 21.67578,-30.320312 l 4.68555,4.759765 c -0.0206,16.363152 -9.91408,31.097237 -25.05859,37.302735 -15.16026,6.211879 -32.57015,2.645565 -44.06641,-9.027344 -11.49634,-11.67288 -14.79777,-29.135397 -8.35547,-44.199219 2.09125,-4.8899032 5.12947,-9.318657 8.9375,-13.0312498 7.67912,-7.4865776 18.02197,-11.6048032 28.74414,-11.4550782 z"
             id="path9" />
        </g>
        <path
           style="fill:url(#radialGradient13);stroke-width:7.51896"
           d="M 0.33271898,-225.47023 C -28.393495,-197.46396 -51.302546,-164.05738 -67.078029,-127.16998 -115.67491,-13.537384 -90.77308,118.19749 -4.0514314,206.25084 82.669521,294.30439 214.00906,321.2115 328.36913,274.35273 442.73033,227.49297 517.4273,116.16048 517.42664,-7.4288414 524.6591,-43.673639 463.25296,-77.360989 457.75217,-41.980896 450.71154,54.948139 409.41208,142.15749 317.77146,184.23575 224.87013,226.79899 121.94709,211.56584 57.273847,145.68076 -7.4002711,79.796798 -20.997053,-23.671056 22.860565,-116.19584 66.114993,-207.21834 133.3034,-252.06588 229.78791,-257.88355 c 16.52787,-7.08165 21.69255,-49.30625 -8.71647,-59.01941 -81.02176,-1.23449 -162.718682,34.86703 -220.73911347,91.43273 z"
           id="path10"
           sodipodi:nodetypes="sscccccccccss" />
        <path
           style="fill:url(#radialGradient14);fill-opacity:0;stroke-width:4.37763"
           d="m 190.60923,-159.97897 c -47.32575,-0.72108 -92.992428,17.4474 -126.882846,50.48808 C 46.946978,-93.132026 33.568115,-73.623737 24.353382,-52.077265 -4.0321252,14.295647 10.515741,91.25241 61.169936,142.68445 111.82374,194.11661 188.54391,209.82956 255.3417,182.45931 322.1402,155.08848 365.76607,90.059376 365.76567,17.870738 v -0.239412 l -22.58072,-22.922703 -0.0854,1.2739602 C 339.01692,52.188802 301.86911,104.52569 248.70697,128.93595 194.81346,153.62755 135.1656,144.77499 97.695905,106.6032 60.225726,68.432066 52.331242,8.4646768 77.774281,-45.211582 102.86737,-98.016301 155.40526,-134.41821 211.35179,-137.79159 l 1.27398,-0.0769 -21.78558,-22.11044 z m -0.23946,1.17136 19.71645,20.02423 C 154.13807,-134.93572 101.81525,-98.511587 76.722425,-45.707471 51.096576,8.3545097 59.028357,68.869634 96.866389,107.41547 c 37.837461,38.5465 98.036071,47.44227 152.319231,22.57215 h 0.009 C 302.36234,105.57467 339.52994,53.459238 344.08289,-2.7434442 L 364.59448,18.093039 C 364.50431,89.724838 321.19433,154.22519 254.89729,181.39055 188.5313,208.58385 112.31727,192.97186 61.990917,141.8722 11.664214,90.772664 -2.7882218,14.328252 25.413776,-51.615566 34.568488,-73.021745 47.868687,-92.409181 64.538828,-108.66153 98.155162,-141.43499 143.43232,-159.46305 190.37,-158.80761 Z"
           id="path11" />
      </g>
      <text
         xml:space="preserve"
         style="font-style:normal;font-variant:normal;font-weight:normal;font-stretch:normal;font-size:216.012px;line-height:0px;font-family:'Cambria Math';-inkscape-font-specification:'Cambria Math, @opsz=32';font-variant-ligatures:normal;font-variant-caps:normal;font-variant-numeric:normal;font-variant-east-asian:normal;font-variation-settings:'opsz' 32;text-align:start;writing-mode:lr-tb;direction:ltr;text-anchor:start;fill:#1e1b0f;fill-opacity:1;stroke-width:4.73163;stroke-linecap:round;stroke-linejoin:round;paint-order:fill markers stroke"
         x="539.09912"
         y="836.24805"
         id="text16"
         transform="rotate(-45.321712)"><tspan
           sodipodi:role="line"
           id="tspan16"
           style="font-style:normal;font-variant:normal;font-weight:normal;font-stretch:normal;font-size:216.012px;font-family:'Cambria Math';-inkscape-font-specification:'Cambria Math, @opsz=32';font-variant-ligatures:normal;font-variant-caps:normal;font-variant-numeric:normal;font-variant-east-asian:normal;font-variation-settings:'opsz' 32;fill:#1e1b0f;fill-opacity:1;stroke-width:4.73163"
           x="539.09912"
           y="836.24805">CCLauncher</tspan></text>
    </g>
  </g>
  <script
     id="mesh_polyfill"
     type="text/javascript">
!function(){const t=&quot;http://www.w3.org/2000/svg&quot;,e=&quot;http://www.w3.org/1999/xlink&quot;,s=&quot;http://www.w3.org/1999/xhtml&quot;,r=2;if(document.createElementNS(t,&quot;meshgradient&quot;).x)return;const n=(t,e,s,r)=&gt;{let n=new x(.5*(e.x+s.x),.5*(e.y+s.y)),o=new x(.5*(t.x+e.x),.5*(t.y+e.y)),i=new x(.5*(s.x+r.x),.5*(s.y+r.y)),a=new x(.5*(n.x+o.x),.5*(n.y+o.y)),h=new x(.5*(n.x+i.x),.5*(n.y+i.y)),l=new x(.5*(a.x+h.x),.5*(a.y+h.y));return[[t,o,a,l],[l,h,i,r]]},o=t=&gt;{let e=t[0].distSquared(t[1]),s=t[2].distSquared(t[3]),r=.25*t[0].distSquared(t[2]),n=.25*t[1].distSquared(t[3]),o=e&gt;s?e:s,i=r&gt;n?r:n;return 18*(o&gt;i?o:i)},i=(t,e)=&gt;Math.sqrt(t.distSquared(e)),a=(t,e)=&gt;t.scale(2/3).add(e.scale(1/3)),h=t=&gt;{let e,s,r,n,o,i,a,h=new g;return t.match(/(\w+\(\s*[^)]+\))+/g).forEach(t=&gt;{let l=t.match(/[\w.-]+/g),d=l.shift();switch(d){case&quot;translate&quot;:2===l.length?e=new g(1,0,0,1,l[0],l[1]):(console.error(&quot;mesh.js: translate does not have 2 arguments!&quot;),e=new g(1,0,0,1,0,0)),h=h.append(e);break;case&quot;scale&quot;:1===l.length?s=new g(l[0],0,0,l[0],0,0):2===l.length?s=new g(l[0],0,0,l[1],0,0):(console.error(&quot;mesh.js: scale does not have 1 or 2 arguments!&quot;),s=new g(1,0,0,1,0,0)),h=h.append(s);break;case&quot;rotate&quot;:if(3===l.length&amp;&amp;(e=new g(1,0,0,1,l[1],l[2]),h=h.append(e)),l[0]){r=l[0]*Math.PI/180;let t=Math.cos(r),e=Math.sin(r);Math.abs(t)&lt;1e-16&amp;&amp;(t=0),Math.abs(e)&lt;1e-16&amp;&amp;(e=0),a=new g(t,e,-e,t,0,0),h=h.append(a)}else console.error(&quot;math.js: No argument to rotate transform!&quot;);3===l.length&amp;&amp;(e=new g(1,0,0,1,-l[1],-l[2]),h=h.append(e));break;case&quot;skewX&quot;:l[0]?(r=l[0]*Math.PI/180,n=Math.tan(r),o=new g(1,0,n,1,0,0),h=h.append(o)):console.error(&quot;math.js: No argument to skewX transform!&quot;);break;case&quot;skewY&quot;:l[0]?(r=l[0]*Math.PI/180,n=Math.tan(r),i=new g(1,n,0,1,0,0),h=h.append(i)):console.error(&quot;math.js: No argument to skewY transform!&quot;);break;case&quot;matrix&quot;:6===l.length?h=h.append(new g(...l)):console.error(&quot;math.js: Incorrect number of arguments for matrix!&quot;);break;default:console.error(&quot;mesh.js: Unhandled transform type: &quot;+d)}}),h},l=t=&gt;{let e=[],s=t.split(/[ ,]+/);for(let t=0,r=s.length-1;t&lt;r;t+=2)e.push(new x(parseFloat(s[t]),parseFloat(s[t+1])));return e},d=(t,e)=&gt;{for(let s in e)t.setAttribute(s,e[s])},c=(t,e,s,r,n)=&gt;{let o,i,a=[0,0,0,0];for(let h=0;h&lt;3;++h)e[h]&lt;t[h]&amp;&amp;e[h]&lt;s[h]||t[h]&lt;e[h]&amp;&amp;s[h]&lt;e[h]?a[h]=0:(a[h]=.5*((e[h]-t[h])/r+(s[h]-e[h])/n),o=Math.abs(3*(e[h]-t[h])/r),i=Math.abs(3*(s[h]-e[h])/n),a[h]&gt;o?a[h]=o:a[h]&gt;i&amp;&amp;(a[h]=i));return a},u=[[1,0,0,0,0,0,0,0,0,0,0,0,0,0,0,0],[0,0,0,0,1,0,0,0,0,0,0,0,0,0,0,0],[-3,3,0,0,-2,-1,0,0,0,0,0,0,0,0,0,0],[2,-2,0,0,1,1,0,0,0,0,0,0,0,0,0,0],[0,0,0,0,0,0,0,0,1,0,0,0,0,0,0,0],[0,0,0,0,0,0,0,0,0,0,0,0,1,0,0,0],[0,0,0,0,0,0,0,0,-3,3,0,0,-2,-1,0,0],[0,0,0,0,0,0,0,0,2,-2,0,0,1,1,0,0],[-3,0,3,0,0,0,0,0,-2,0,-1,0,0,0,0,0],[0,0,0,0,-3,0,3,0,0,0,0,0,-2,0,-1,0],[9,-9,-9,9,6,3,-6,-3,6,-6,3,-3,4,2,2,1],[-6,6,6,-6,-3,-3,3,3,-4,4,-2,2,-2,-2,-1,-1],[2,0,-2,0,0,0,0,0,1,0,1,0,0,0,0,0],[0,0,0,0,2,0,-2,0,0,0,0,0,1,0,1,0],[-6,6,6,-6,-4,-2,4,2,-3,3,-3,3,-2,-1,-2,-1],[4,-4,-4,4,2,2,-2,-2,2,-2,2,-2,1,1,1,1]],f=t=&gt;{let e=[];for(let s=0;s&lt;16;++s){e[s]=0;for(let r=0;r&lt;16;++r)e[s]+=u[s][r]*t[r]}return e},p=(t,e,s)=&gt;{const r=e*e,n=s*s,o=e*e*e,i=s*s*s;return t[0]+t[1]*e+t[2]*r+t[3]*o+t[4]*s+t[5]*s*e+t[6]*s*r+t[7]*s*o+t[8]*n+t[9]*n*e+t[10]*n*r+t[11]*n*o+t[12]*i+t[13]*i*e+t[14]*i*r+t[15]*i*o},y=t=&gt;{let e=[],s=[],r=[];for(let s=0;s&lt;4;++s)e[s]=[],e[s][0]=n(t[0][s],t[1][s],t[2][s],t[3][s]),e[s][1]=[],e[s][1].push(...n(...e[s][0][0])),e[s][1].push(...n(...e[s][0][1])),e[s][2]=[],e[s][2].push(...n(...e[s][1][0])),e[s][2].push(...n(...e[s][1][1])),e[s][2].push(...n(...e[s][1][2])),e[s][2].push(...n(...e[s][1][3]));for(let t=0;t&lt;8;++t){s[t]=[];for(let r=0;r&lt;4;++r)s[t][r]=[],s[t][r][0]=n(e[0][2][t][r],e[1][2][t][r],e[2][2][t][r],e[3][2][t][r]),s[t][r][1]=[],s[t][r][1].push(...n(...s[t][r][0][0])),s[t][r][1].push(...n(...s[t][r][0][1])),s[t][r][2]=[],s[t][r][2].push(...n(...s[t][r][1][0])),s[t][r][2].push(...n(...s[t][r][1][1])),s[t][r][2].push(...n(...s[t][r][1][2])),s[t][r][2].push(...n(...s[t][r][1][3]))}for(let t=0;t&lt;8;++t){r[t]=[];for(let e=0;e&lt;8;++e)r[t][e]=[],r[t][e][0]=s[t][0][2][e],r[t][e][1]=s[t][1][2][e],r[t][e][2]=s[t][2][2][e],r[t][e][3]=s[t][3][2][e]}return r};class x{constructor(t,e){this.x=t||0,this.y=e||0}toString(){return`(x=${this.x}, y=${this.y})`}clone(){return new x(this.x,this.y)}add(t){return new x(this.x+t.x,this.y+t.y)}scale(t){return void 0===t.x?new x(this.x*t,this.y*t):new x(this.x*t.x,this.y*t.y)}distSquared(t){let e=this.x-t.x,s=this.y-t.y;return e*e+s*s}transform(t){let e=this.x*t.a+this.y*t.c+t.e,s=this.x*t.b+this.y*t.d+t.f;return new x(e,s)}}class g{constructor(t,e,s,r,n,o){void 0===t?(this.a=1,this.b=0,this.c=0,this.d=1,this.e=0,this.f=0):(this.a=t,this.b=e,this.c=s,this.d=r,this.e=n,this.f=o)}toString(){return`affine: ${this.a} ${this.c} ${this.e} \n       ${this.b} ${this.d} ${this.f}`}append(t){t instanceof g||console.error(&quot;mesh.js: argument to Affine.append is not affine!&quot;);let e=this.a*t.a+this.c*t.b,s=this.b*t.a+this.d*t.b,r=this.a*t.c+this.c*t.d,n=this.b*t.c+this.d*t.d,o=this.a*t.e+this.c*t.f+this.e,i=this.b*t.e+this.d*t.f+this.f;return new g(e,s,r,n,o,i)}}class w{constructor(t,e){this.nodes=t,this.colors=e}paintCurve(t,e){if(o(this.nodes)&gt;r){const s=n(...this.nodes);let r=[[],[]],o=[[],[]];for(let t=0;t&lt;4;++t)r[0][t]=this.colors[0][t],r[1][t]=(this.colors[0][t]+this.colors[1][t])/2,o[0][t]=r[1][t],o[1][t]=this.colors[1][t];let i=new w(s[0],r),a=new w(s[1],o);i.paintCurve(t,e),a.paintCurve(t,e)}else{let s=Math.round(this.nodes[0].x);if(s&gt;=0&amp;&amp;s&lt;e){let r=4*(~~this.nodes[0].y*e+s);t[r]=Math.round(this.colors[0][0]),t[r+1]=Math.round(this.colors[0][1]),t[r+2]=Math.round(this.colors[0][2]),t[r+3]=Math.round(this.colors[0][3])}}}}class m{constructor(t,e){this.nodes=t,this.colors=e}split(){let t=[[],[],[],[]],e=[[],[],[],[]],s=[[[],[]],[[],[]]],r=[[[],[]],[[],[]]];for(let s=0;s&lt;4;++s){const r=n(this.nodes[0][s],this.nodes[1][s],this.nodes[2][s],this.nodes[3][s]);t[0][s]=r[0][0],t[1][s]=r[0][1],t[2][s]=r[0][2],t[3][s]=r[0][3],e[0][s]=r[1][0],e[1][s]=r[1][1],e[2][s]=r[1][2],e[3][s]=r[1][3]}for(let t=0;t&lt;4;++t)s[0][0][t]=this.colors[0][0][t],s[0][1][t]=this.colors[0][1][t],s[1][0][t]=(this.colors[0][0][t]+this.colors[1][0][t])/2,s[1][1][t]=(this.colors[0][1][t]+this.colors[1][1][t])/2,r[0][0][t]=s[1][0][t],r[0][1][t]=s[1][1][t],r[1][0][t]=this.colors[1][0][t],r[1][1][t]=this.colors[1][1][t];return[new m(t,s),new m(e,r)]}paint(t,e){let s,n=!1;for(let t=0;t&lt;4;++t)if((s=o([this.nodes[0][t],this.nodes[1][t],this.nodes[2][t],this.nodes[3][t]]))&gt;r){n=!0;break}if(n){let s=this.split();s[0].paint(t,e),s[1].paint(t,e)}else{new w([...this.nodes[0]],[...this.colors[0]]).paintCurve(t,e)}}}class b{constructor(t){this.readMesh(t),this.type=t.getAttribute(&quot;type&quot;)||&quot;bilinear&quot;}readMesh(t){let e=[[]],s=[[]],r=Number(t.getAttribute(&quot;x&quot;)),n=Number(t.getAttribute(&quot;y&quot;));e[0][0]=new x(r,n);let o=t.children;for(let t=0,r=o.length;t&lt;r;++t){e[3*t+1]=[],e[3*t+2]=[],e[3*t+3]=[],s[t+1]=[];let r=o[t].children;for(let n=0,o=r.length;n&lt;o;++n){let o=r[n].children;for(let r=0,i=o.length;r&lt;i;++r){let i=r;0!==t&amp;&amp;++i;let h,d=o[r].getAttribute(&quot;path&quot;),c=&quot;l&quot;;null!=d&amp;&amp;(c=(h=d.match(/\s*([lLcC])\s*(.*)/))[1]);let u=l(h[2]);switch(c){case&quot;l&quot;:0===i?(e[3*t][3*n+3]=u[0].add(e[3*t][3*n]),e[3*t][3*n+1]=a(e[3*t][3*n],e[3*t][3*n+3]),e[3*t][3*n+2]=a(e[3*t][3*n+3],e[3*t][3*n])):1===i?(e[3*t+3][3*n+3]=u[0].add(e[3*t][3*n+3]),e[3*t+1][3*n+3]=a(e[3*t][3*n+3],e[3*t+3][3*n+3]),e[3*t+2][3*n+3]=a(e[3*t+3][3*n+3],e[3*t][3*n+3])):2===i?(0===n&amp;&amp;(e[3*t+3][3*n+0]=u[0].add(e[3*t+3][3*n+3])),e[3*t+3][3*n+1]=a(e[3*t+3][3*n],e[3*t+3][3*n+3]),e[3*t+3][3*n+2]=a(e[3*t+3][3*n+3],e[3*t+3][3*n])):(e[3*t+1][3*n]=a(e[3*t][3*n],e[3*t+3][3*n]),e[3*t+2][3*n]=a(e[3*t+3][3*n],e[3*t][3*n]));break;case&quot;L&quot;:0===i?(e[3*t][3*n+3]=u[0],e[3*t][3*n+1]=a(e[3*t][3*n],e[3*t][3*n+3]),e[3*t][3*n+2]=a(e[3*t][3*n+3],e[3*t][3*n])):1===i?(e[3*t+3][3*n+3]=u[0],e[3*t+1][3*n+3]=a(e[3*t][3*n+3],e[3*t+3][3*n+3]),e[3*t+2][3*n+3]=a(e[3*t+3][3*n+3],e[3*t][3*n+3])):2===i?(0===n&amp;&amp;(e[3*t+3][3*n+0]=u[0]),e[3*t+3][3*n+1]=a(e[3*t+3][3*n],e[3*t+3][3*n+3]),e[3*t+3][3*n+2]=a(e[3*t+3][3*n+3],e[3*t+3][3*n])):(e[3*t+1][3*n]=a(e[3*t][3*n],e[3*t+3][3*n]),e[3*t+2][3*n]=a(e[3*t+3][3*n],e[3*t][3*n]));break;case&quot;c&quot;:0===i?(e[3*t][3*n+1]=u[0].add(e[3*t][3*n]),e[3*t][3*n+2]=u[1].add(e[3*t][3*n]),e[3*t][3*n+3]=u[2].add(e[3*t][3*n])):1===i?(e[3*t+1][3*n+3]=u[0].add(e[3*t][3*n+3]),e[3*t+2][3*n+3]=u[1].add(e[3*t][3*n+3]),e[3*t+3][3*n+3]=u[2].add(e[3*t][3*n+3])):2===i?(e[3*t+3][3*n+2]=u[0].add(e[3*t+3][3*n+3]),e[3*t+3][3*n+1]=u[1].add(e[3*t+3][3*n+3]),0===n&amp;&amp;(e[3*t+3][3*n+0]=u[2].add(e[3*t+3][3*n+3]))):(e[3*t+2][3*n]=u[0].add(e[3*t+3][3*n]),e[3*t+1][3*n]=u[1].add(e[3*t+3][3*n]));break;case&quot;C&quot;:0===i?(e[3*t][3*n+1]=u[0],e[3*t][3*n+2]=u[1],e[3*t][3*n+3]=u[2]):1===i?(e[3*t+1][3*n+3]=u[0],e[3*t+2][3*n+3]=u[1],e[3*t+3][3*n+3]=u[2]):2===i?(e[3*t+3][3*n+2]=u[0],e[3*t+3][3*n+1]=u[1],0===n&amp;&amp;(e[3*t+3][3*n+0]=u[2])):(e[3*t+2][3*n]=u[0],e[3*t+1][3*n]=u[1]);break;default:console.error(&quot;mesh.js: &quot;+c+&quot; invalid path type.&quot;)}if(0===t&amp;&amp;0===n||r&gt;0){let e=window.getComputedStyle(o[r]).stopColor.match(/^rgb\s*\(\s*(\d+)\s*,\s*(\d+)\s*,\s*(\d+)\s*\)$/i),a=window.getComputedStyle(o[r]).stopOpacity,h=255;a&amp;&amp;(h=Math.floor(255*a)),e&amp;&amp;(0===i?(s[t][n]=[],s[t][n][0]=Math.floor(e[1]),s[t][n][1]=Math.floor(e[2]),s[t][n][2]=Math.floor(e[3]),s[t][n][3]=h):1===i?(s[t][n+1]=[],s[t][n+1][0]=Math.floor(e[1]),s[t][n+1][1]=Math.floor(e[2]),s[t][n+1][2]=Math.floor(e[3]),s[t][n+1][3]=h):2===i?(s[t+1][n+1]=[],s[t+1][n+1][0]=Math.floor(e[1]),s[t+1][n+1][1]=Math.floor(e[2]),s[t+1][n+1][2]=Math.floor(e[3]),s[t+1][n+1][3]=h):3===i&amp;&amp;(s[t+1][n]=[],s[t+1][n][0]=Math.floor(e[1]),s[t+1][n][1]=Math.floor(e[2]),s[t+1][n][2]=Math.floor(e[3]),s[t+1][n][3]=h))}}e[3*t+1][3*n+1]=new x,e[3*t+1][3*n+2]=new x,e[3*t+2][3*n+1]=new x,e[3*t+2][3*n+2]=new x,e[3*t+1][3*n+1].x=(-4*e[3*t][3*n].x+6*(e[3*t][3*n+1].x+e[3*t+1][3*n].x)+-2*(e[3*t][3*n+3].x+e[3*t+3][3*n].x)+3*(e[3*t+3][3*n+1].x+e[3*t+1][3*n+3].x)+-1*e[3*t+3][3*n+3].x)/9,e[3*t+1][3*n+2].x=(-4*e[3*t][3*n+3].x+6*(e[3*t][3*n+2].x+e[3*t+1][3*n+3].x)+-2*(e[3*t][3*n].x+e[3*t+3][3*n+3].x)+3*(e[3*t+3][3*n+2].x+e[3*t+1][3*n].x)+-1*e[3*t+3][3*n].x)/9,e[3*t+2][3*n+1].x=(-4*e[3*t+3][3*n].x+6*(e[3*t+3][3*n+1].x+e[3*t+2][3*n].x)+-2*(e[3*t+3][3*n+3].x+e[3*t][3*n].x)+3*(e[3*t][3*n+1].x+e[3*t+2][3*n+3].x)+-1*e[3*t][3*n+3].x)/9,e[3*t+2][3*n+2].x=(-4*e[3*t+3][3*n+3].x+6*(e[3*t+3][3*n+2].x+e[3*t+2][3*n+3].x)+-2*(e[3*t+3][3*n].x+e[3*t][3*n+3].x)+3*(e[3*t][3*n+2].x+e[3*t+2][3*n].x)+-1*e[3*t][3*n].x)/9,e[3*t+1][3*n+1].y=(-4*e[3*t][3*n].y+6*(e[3*t][3*n+1].y+e[3*t+1][3*n].y)+-2*(e[3*t][3*n+3].y+e[3*t+3][3*n].y)+3*(e[3*t+3][3*n+1].y+e[3*t+1][3*n+3].y)+-1*e[3*t+3][3*n+3].y)/9,e[3*t+1][3*n+2].y=(-4*e[3*t][3*n+3].y+6*(e[3*t][3*n+2].y+e[3*t+1][3*n+3].y)+-2*(e[3*t][3*n].y+e[3*t+3][3*n+3].y)+3*(e[3*t+3][3*n+2].y+e[3*t+1][3*n].y)+-1*e[3*t+3][3*n].y)/9,e[3*t+2][3*n+1].y=(-4*e[3*t+3][3*n].y+6*(e[3*t+3][3*n+1].y+e[3*t+2][3*n].y)+-2*(e[3*t+3][3*n+3].y+e[3*t][3*n].y)+3*(e[3*t][3*n+1].y+e[3*t+2][3*n+3].y)+-1*e[3*t][3*n+3].y)/9,e[3*t+2][3*n+2].y=(-4*e[3*t+3][3*n+3].y+6*(e[3*t+3][3*n+2].y+e[3*t+2][3*n+3].y)+-2*(e[3*t+3][3*n].y+e[3*t][3*n+3].y)+3*(e[3*t][3*n+2].y+e[3*t+2][3*n].y)+-1*e[3*t][3*n].y)/9}}this.nodes=e,this.colors=s}paintMesh(t,e){let s=(this.nodes.length-1)/3,r=(this.nodes[0].length-1)/3;if(&quot;bilinear&quot;===this.type||s&lt;2||r&lt;2){let n;for(let o=0;o&lt;s;++o)for(let s=0;s&lt;r;++s){let r=[];for(let t=3*o,e=3*o+4;t&lt;e;++t)r.push(this.nodes[t].slice(3*s,3*s+4));let i=[];i.push(this.colors[o].slice(s,s+2)),i.push(this.colors[o+1].slice(s,s+2)),(n=new m(r,i)).paint(t,e)}}else{let n,o,a,h,l,d,u;const x=s,g=r;s++,r++;let w=new Array(s);for(let t=0;t&lt;s;++t){w[t]=new Array(r);for(let e=0;e&lt;r;++e)w[t][e]=[],w[t][e][0]=this.nodes[3*t][3*e],w[t][e][1]=this.colors[t][e]}for(let t=0;t&lt;s;++t)for(let e=0;e&lt;r;++e)0!==t&amp;&amp;t!==x&amp;&amp;(n=i(w[t-1][e][0],w[t][e][0]),o=i(w[t+1][e][0],w[t][e][0]),w[t][e][2]=c(w[t-1][e][1],w[t][e][1],w[t+1][e][1],n,o)),0!==e&amp;&amp;e!==g&amp;&amp;(n=i(w[t][e-1][0],w[t][e][0]),o=i(w[t][e+1][0],w[t][e][0]),w[t][e][3]=c(w[t][e-1][1],w[t][e][1],w[t][e+1][1],n,o));for(let t=0;t&lt;r;++t){w[0][t][2]=[],w[x][t][2]=[];for(let e=0;e&lt;4;++e)n=i(w[1][t][0],w[0][t][0]),o=i(w[x][t][0],w[x-1][t][0]),w[0][t][2][e]=n&gt;0?2*(w[1][t][1][e]-w[0][t][1][e])/n-w[1][t][2][e]:0,w[x][t][2][e]=o&gt;0?2*(w[x][t][1][e]-w[x-1][t][1][e])/o-w[x-1][t][2][e]:0}for(let t=0;t&lt;s;++t){w[t][0][3]=[],w[t][g][3]=[];for(let e=0;e&lt;4;++e)n=i(w[t][1][0],w[t][0][0]),o=i(w[t][g][0],w[t][g-1][0]),w[t][0][3][e]=n&gt;0?2*(w[t][1][1][e]-w[t][0][1][e])/n-w[t][1][3][e]:0,w[t][g][3][e]=o&gt;0?2*(w[t][g][1][e]-w[t][g-1][1][e])/o-w[t][g-1][3][e]:0}for(let s=0;s&lt;x;++s)for(let r=0;r&lt;g;++r){let n=i(w[s][r][0],w[s+1][r][0]),o=i(w[s][r+1][0],w[s+1][r+1][0]),c=i(w[s][r][0],w[s][r+1][0]),x=i(w[s+1][r][0],w[s+1][r+1][0]),g=[[],[],[],[]];for(let t=0;t&lt;4;++t){(d=[])[0]=w[s][r][1][t],d[1]=w[s+1][r][1][t],d[2]=w[s][r+1][1][t],d[3]=w[s+1][r+1][1][t],d[4]=w[s][r][2][t]*n,d[5]=w[s+1][r][2][t]*n,d[6]=w[s][r+1][2][t]*o,d[7]=w[s+1][r+1][2][t]*o,d[8]=w[s][r][3][t]*c,d[9]=w[s+1][r][3][t]*x,d[10]=w[s][r+1][3][t]*c,d[11]=w[s+1][r+1][3][t]*x,d[12]=0,d[13]=0,d[14]=0,d[15]=0,u=f(d);for(let e=0;e&lt;9;++e){g[t][e]=[];for(let s=0;s&lt;9;++s)g[t][e][s]=p(u,e/8,s/8),g[t][e][s]&gt;255?g[t][e][s]=255:g[t][e][s]&lt;0&amp;&amp;(g[t][e][s]=0)}}h=[];for(let t=3*s,e=3*s+4;t&lt;e;++t)h.push(this.nodes[t].slice(3*r,3*r+4));l=y(h);for(let s=0;s&lt;8;++s)for(let r=0;r&lt;8;++r)(a=new m(l[s][r],[[[g[0][s][r],g[1][s][r],g[2][s][r],g[3][s][r]],[g[0][s][r+1],g[1][s][r+1],g[2][s][r+1],g[3][s][r+1]]],[[g[0][s+1][r],g[1][s+1][r],g[2][s+1][r],g[3][s+1][r]],[g[0][s+1][r+1],g[1][s+1][r+1],g[2][s+1][r+1],g[3][s+1][r+1]]]])).paint(t,e)}}}transform(t){if(t instanceof x)for(let e=0,s=this.nodes.length;e&lt;s;++e)for(let s=0,r=this.nodes[0].length;s&lt;r;++s)this.nodes[e][s]=this.nodes[e][s].add(t);else if(t instanceof g)for(let e=0,s=this.nodes.length;e&lt;s;++e)for(let s=0,r=this.nodes[0].length;s&lt;r;++s)this.nodes[e][s]=this.nodes[e][s].transform(t)}scale(t){for(let e=0,s=this.nodes.length;e&lt;s;++e)for(let s=0,r=this.nodes[0].length;s&lt;r;++s)this.nodes[e][s]=this.nodes[e][s].scale(t)}}document.querySelectorAll(&quot;rect,circle,ellipse,path,text&quot;).forEach((r,n)=&gt;{let o=r.getAttribute(&quot;id&quot;);o||(o=&quot;patchjs_shape&quot;+n,r.setAttribute(&quot;id&quot;,o));const i=r.style.fill.match(/^url\(\s*&quot;?\s*#([^\s&quot;]+)&quot;?\s*\)/),a=r.style.stroke.match(/^url\(\s*&quot;?\s*#([^\s&quot;]+)&quot;?\s*\)/);if(i&amp;&amp;i[1]){const a=document.getElementById(i[1]);if(a&amp;&amp;&quot;meshgradient&quot;===a.nodeName){const i=r.getBBox();let l=document.createElementNS(s,&quot;canvas&quot;);d(l,{width:i.width,height:i.height});const c=l.getContext(&quot;2d&quot;);let u=c.createImageData(i.width,i.height);const f=new b(a);&quot;objectBoundingBox&quot;===a.getAttribute(&quot;gradientUnits&quot;)&amp;&amp;f.scale(new x(i.width,i.height));const p=a.getAttribute(&quot;gradientTransform&quot;);null!=p&amp;&amp;f.transform(h(p)),&quot;userSpaceOnUse&quot;===a.getAttribute(&quot;gradientUnits&quot;)&amp;&amp;f.transform(new x(-i.x,-i.y)),f.paintMesh(u.data,l.width),c.putImageData(u,0,0);const y=document.createElementNS(t,&quot;image&quot;);d(y,{width:i.width,height:i.height,x:i.x,y:i.y});let g=l.toDataURL();y.setAttributeNS(e,&quot;xlink:href&quot;,g),r.parentNode.insertBefore(y,r),r.style.fill=&quot;none&quot;;const w=document.createElementNS(t,&quot;use&quot;);w.setAttributeNS(e,&quot;xlink:href&quot;,&quot;#&quot;+o);const m=&quot;patchjs_clip&quot;+n,M=document.createElementNS(t,&quot;clipPath&quot;);M.setAttribute(&quot;id&quot;,m),M.appendChild(w),r.parentElement.insertBefore(M,r),y.setAttribute(&quot;clip-path&quot;,&quot;url(#&quot;+m+&quot;)&quot;),u=null,l=null,g=null}}if(a&amp;&amp;a[1]){const o=document.getElementById(a[1]);if(o&amp;&amp;&quot;meshgradient&quot;===o.nodeName){const i=parseFloat(r.style.strokeWidth.slice(0,-2))*(parseFloat(r.style.strokeMiterlimit)||parseFloat(r.getAttribute(&quot;stroke-miterlimit&quot;))||1),a=r.getBBox(),l=Math.trunc(a.width+i),c=Math.trunc(a.height+i),u=Math.trunc(a.x-i/2),f=Math.trunc(a.y-i/2);let p=document.createElementNS(s,&quot;canvas&quot;);d(p,{width:l,height:c});const y=p.getContext(&quot;2d&quot;);let g=y.createImageData(l,c);const w=new b(o);&quot;objectBoundingBox&quot;===o.getAttribute(&quot;gradientUnits&quot;)&amp;&amp;w.scale(new x(l,c));const m=o.getAttribute(&quot;gradientTransform&quot;);null!=m&amp;&amp;w.transform(h(m)),&quot;userSpaceOnUse&quot;===o.getAttribute(&quot;gradientUnits&quot;)&amp;&amp;w.transform(new x(-u,-f)),w.paintMesh(g.data,p.width),y.putImageData(g,0,0);const M=document.createElementNS(t,&quot;image&quot;);d(M,{width:l,height:c,x:0,y:0});let S=p.toDataURL();M.setAttributeNS(e,&quot;xlink:href&quot;,S);const k=&quot;pattern_clip&quot;+n,A=document.createElementNS(t,&quot;pattern&quot;);d(A,{id:k,patternUnits:&quot;userSpaceOnUse&quot;,width:l,height:c,x:u,y:f}),A.appendChild(M),o.parentNode.appendChild(A),r.style.stroke=&quot;url(#&quot;+k+&quot;)&quot;,g=null,p=null,S=null}}})}();
</script>
</svg>
